<svg width="395" height="432" viewBox="0 0 395 432" fill="none" xmlns="http://www.w3.org/2000/svg">
<g clip-path="url(#clip0_7497_114756)">
<g clip-path="url(#clip1_7497_114756)">
<path d="M240.555 382.706C233.658 398 229.098 414.597 227.352 432.003L373.316 400.974C380.214 385.684 384.769 369.083 386.52 351.678L240.555 382.706Z" fill="#14382B"/>
<path d="M373.316 308.014C380.213 292.723 384.772 276.123 386.519 258.717L272.817 282.9V236.412L373.312 215.056C380.21 199.765 384.769 183.165 386.516 165.759L272.814 189.921V22.7383C255.391 32.5206 239.918 45.5419 227.341 60.9013V199.59L181.868 209.256V0C164.445 9.77887 148.972 22.8036 136.394 38.1631V218.917L34.6481 240.538C27.7506 255.829 23.1878 272.43 21.4376 289.835L136.394 265.405V323.948L13.1957 350.128C6.29825 365.418 1.73891 382.019 -0.0078125 399.424L128.947 372.02C139.444 369.837 148.467 363.63 154.333 355.089L177.982 320.028V320.021C180.437 316.393 181.868 312.02 181.868 307.309V255.74L227.341 246.074V339.049L373.312 308.007L373.316 308.014Z" fill="#14382B"/>
</g>
</g>
<defs>
<clipPath id="clip0_7497_114756">
<path d="M0 16C0 7.16343 7.16344 0 16 0H378.527C387.363 0 394.527 7.16344 394.527 16V416C394.527 424.837 387.363 432 378.527 432H16C7.16344 432 0 424.837 0 416V16Z" fill="white"/>
</clipPath>
<clipPath id="clip1_7497_114756">
<rect width="386.527" height="432" fill="white"/>
</clipPath>
</defs>
</svg>
